{"title":"Warpaint.Barclaycard.Mercury.Prize.Sessions.2014.AVC.AC3.HD.720p","uid":11645186,"size":627329265,"categoryP":"video","categoryS":"music_videos","magnet":"?xt=urn:btih:5612f52cab372d407cafd7d83027a8fcad5d77ce&amp;dn=Warpaint.Barclaycard.Mercury.Prize.Sessions.2014.AVC.AC3.HD.720p&amp;tr=udp%3A%2F%2Ftracker.openbittorrent.com%3A80&amp;tr=udp%3A%2F%2Fopen.demonii.com%3A1337&amp;tr=udp%3A%2F%2Ftracker.coppersurfer.tk%3A6969&amp;tr=udp%3A%2F%2Fexodus.desync.com%3A6969","seeders":0,"leechers":1,"uploader":"user101966","files":2,"time":1417814933,"description":"I just realized I forgot this one in my previous &quot;mega upload&quot;. In fact it was being encoded at the time (using AVC so I'd completely forgotten about it, having started the encoding several hours earlier).\n\nThe first encoding at 1080p was almost instant by the way. No resizing, and after saving the .ts file as AVI what I got back was an AVI where every second frame was blank yet it still indicated an &quot;interlaced&quot; video (I presume this is how you fake an interlaced scan when really all it is is a series of progressive frames intermixed with nothingness - no evens or odd &quot;scan lines&quot;).\n\nSo, that being the case, in fact there should not be any encoding requirement to convert it to a progressive AVI except that no encoder has a setting to &quot;change interlaced bit to 0 and drop every 2nd frame&quot;. Instead you have to re-encode the whole thing dropping every 2nd frame. I chose XviD since that's the fastest and it completed in a few minutes.\n\nWell that was fine for the 1080p since it had been &quot;pre-rendered&quot; and a copy is all you need. To resize the thing however, a better choice is AVC which takes FOREVER to complete no matter what settings you choose (I chose &quot;fast&quot;) and cut the bitrate in half to 6000 kbps which is decent for a 720p video (YouTube by comparison offers a whopping 1000 kbps for 720p &quot;high&quot; definition and an astounding 2000 kbps for their 1080p &quot;extremely high&quot; definition videos).\n\nAnyway, here are the video details:\n-----------------------------------\nGeneral\nComplete name                            : Warpaint - Barclaycard Mercury Prize Sessions 2014.avi\nFormat                                   : AVI\nFormat/Info                              : Audio Video Interleave\nFile size                                : 598 MiB\nDuration                                 : 13mn 4s\nOverall bit rate                         : 6 396 Kbps\nWriting library                          : VirtualDub build 35491/release\n\nVideo\nID                                       : 0\nFormat                                   : AVC\nFormat/Info                              : Advanced Video Codec\nFormat profile                           : &lt;a class=&quot;__cf_email__&quot; href=&quot;/cdn-cgi/l/email-protection&quot; data-cfemail=&quot;5d15343a351d116e736c&quot;&gt;[email&amp;#160;protected]&lt;/a&gt;&lt;script cf-hash='f9e31' type=&quot;text/javascript&quot;&gt;\n/* &lt;![CDATA[ */!function(){try{var t=&quot;currentScript&quot;in document?document.currentScript:function(){for(var t=document.getElementsByTagName(&quot;script&quot;),e=t.length;e--;)if(t[e].getAttribute(&quot;cf-hash&quot;))return t[e]}();if(t&amp;&amp;t.previousSibling){var e,r,n,i,c=t.previousSibling,a=c.getAttribute(&quot;data-cfemail&quot;);if(a){for(e=&quot;&quot;,r=parseInt(a.substr(0,2),16),n=2;a.length-n;n+=2)i=parseInt(a.substr(n,2),16)^r,e+=String.fromCharCode(i);e=document.createTextNode(e),c.parentNode.replaceChild(e,c)}}}catch(u){}}();/* ]]&gt; */&lt;/script&gt;\nFormat settings, CABAC                   : Yes\nFormat settings, ReFrames                : 4 frames\nCodec ID                                 : H264\nDuration                                 : 13mn 4s\nBit rate                                 : 6 002 Kbps\nWidth                                    : 1 280 pixels\nHeight                                   : 720 pixels\nDisplay aspect ratio                     : 16:9\nFrame rate                               : 25.000 fps\nColor space                              : YUV\nChroma subsampling                       : 4:2:0\nBit depth                                : 8 bits\nScan type                                : Progressive\nBits/(Pixel*Frame)                       : 0.261\nStream size                              : 561 MiB (94%)\n\nAudio\nID                                       : 1\nFormat                                   : AC-3\nFormat/Info                              : Audio Coding 3\nMode extension                           : CM (complete main)\nFormat settings, Endianness              : Big\nCodec ID                                 : 2000\nDuration                                 : 13mn 4s\nBit rate mode                            : Constant\nBit rate                                 : 384 Kbps\nChannel(s)                               : 2 channels\nChannel positions                        : Front: L R\nSampling rate                            : 48.0 KHz\nBit depth                                : 16 bits\nCompression mode                         : Lossy\nDelay relative to video                  : 8ms\nStream size                              : 35.9 MiB (6%)\nAlignment                                : Split accross interleaves\nInterleave, duration                     : 40 ms (1.00 video frame)\nInterleave, preload duration             : 500 ms\n\n---------------------------\n\n- user101966","torrent":{"xt":"urn:btih:5612f52cab372d407cafd7d83027a8fcad5d77ce","amp;dn":"Warpaint.Barclaycard.Mercury.Prize.Sessions.2014.AVC.AC3.HD.720p","amp;tr":["udp%3A%2F%2Ftracker.openbittorrent.com%3A80","udp%3A%2F%2Fopen.demonii.com%3A1337","udp%3A%2F%2Ftracker.coppersurfer.tk%3A6969","udp%3A%2F%2Fexodus.desync.com%3A6969"],"infoHash":"5612f52cab372d407cafd7d83027a8fcad5d77ce","infoHashBuffer":{"type":"Buffer","data":[86,18,245,44,171,55,45,64,124,175,215,216,48,39,168,252,173,93,119,206]},"announce":[],"urlList":[]}}